<svg width="28" height="28" viewBox="0 0 28 28" fill="none" xmlns="http://www.w3.org/2000/svg">
<g id="Group">
<path id="Vector" d="M14.0123 6.86648C13.7661 6.86648 13.5225 6.87904 13.2826 6.90362C13.0426 6.9282 12.806 6.96462 12.5734 7.01243C12.3408 7.06024 12.1123 7.11944 11.8884 7.18932L11.2313 7.43061L10.6056 7.73273L10.0152 8.09198L9.46355 8.5046L8.9545 8.96701L8.49164 9.47562L8.07857 10.0267L7.71887 10.6165L7.41657 11.2415C7.32571 11.4552 7.24489 11.6744 7.17492 11.8981C7.10495 12.1218 7.04575 12.3502 6.99785 12.5825C6.94995 12.8148 6.91353 13.0512 6.88886 13.291C6.8642 13.5307 6.85182 13.774 6.85182 14.02C6.85182 14.2659 6.86438 14.5092 6.88886 14.749C6.91321 14.9868 6.94959 15.2233 6.99785 15.4575C7.04575 15.6907 7.10495 15.9182 7.17492 16.1419C7.24489 16.3656 7.32562 16.5847 7.41657 16.7985L7.71887 17.4235L8.07857 18.0133L8.49164 18.5644L8.9545 19.073L9.46355 19.5354L10.0152 19.948L10.6056 20.3073L11.2313 20.6094L11.8884 20.8507L12.5734 21.0276C12.8078 21.0758 13.0445 21.1122 13.2826 21.1365C13.525 21.1612 13.7686 21.1736 14.0123 21.1735C14.2585 21.1735 14.5021 21.161 14.7419 21.1365C14.98 21.1122 15.2167 21.0758 15.4511 21.0276L16.1361 20.8507L16.7933 20.6094L17.4189 20.3073L18.0094 19.948L18.561 19.5354L19.0702 19.073L19.533 18.5644L19.9461 18.0133L20.3058 17.4235L20.6081 16.7985L20.8498 16.1419C20.9197 15.9182 20.9789 15.6898 21.0268 15.4575L21.1358 14.7489C21.1604 14.5091 21.1729 14.2658 21.1729 14.0199C21.1729 13.7739 21.1604 13.5306 21.1358 13.2909C21.1115 13.053 21.0751 12.8166 21.0268 12.5824C20.9789 12.3492 20.9197 12.1218 20.8498 11.898L20.6081 11.2414L20.3058 10.6164L19.9461 10.0266L19.533 9.47553L19.0702 8.96692L18.561 8.50452L18.0094 8.09189L17.4189 7.73264L16.7933 7.43052L16.1361 7.18923L15.4511 7.01234L14.7419 6.90353C14.4995 6.87877 14.256 6.86638 14.0123 6.86639V6.86648ZM14.0123 9.3356C14.1751 9.3356 14.3358 9.34367 14.494 9.35963L14.9604 9.43023L15.411 9.54505L15.8425 9.70176L16.2527 9.8982L16.6384 10.1319L16.999 10.4007L17.3314 10.7023L17.6333 11.0344L17.9024 11.3946L18.1363 11.7808L18.3327 12.1908C18.3918 12.3311 18.4442 12.4749 18.4897 12.6219C18.5353 12.7689 18.5736 12.9192 18.6045 13.0722C18.6355 13.2252 18.6584 13.3809 18.6751 13.5391L18.6992 14.0204C18.6992 14.183 18.6911 14.3436 18.6751 14.5018C18.6592 14.6601 18.6357 14.8158 18.6045 14.9687C18.5734 15.1217 18.535 15.2719 18.4897 15.419L18.3327 15.8501L18.1363 16.2601L17.9024 16.6462L17.6333 17.0066L17.3314 17.3386L16.999 17.6402L16.6384 17.909L16.2527 18.1427L15.8425 18.3392L15.411 18.4959L14.9604 18.6107L14.494 18.6812C14.3339 18.6972 14.1731 18.7053 14.0122 18.7052C13.8513 18.7053 13.6905 18.6972 13.5303 18.6812L13.0639 18.6107C12.9108 18.5796 12.7604 18.5413 12.6132 18.4959L12.1818 18.3392L11.7716 18.1427L11.3858 17.909L11.0252 17.6402L10.6928 17.3386L10.391 17.0066L10.1219 16.6462L9.88793 16.2601L9.69148 15.8501L9.53451 15.419L9.41969 14.9687L9.34909 14.5018C9.33304 14.3419 9.32502 14.1812 9.32506 14.0204C9.32502 13.8597 9.33304 13.699 9.34909 13.5391C9.36497 13.3809 9.38856 13.2251 9.41969 13.0722C9.4505 12.9203 9.48885 12.77 9.5346 12.622L9.69157 12.1909L9.88802 11.7809L10.122 11.3947L10.3911 11.0344L10.6929 10.7024L11.0253 10.4008L11.3859 10.132L11.7717 9.89829L12.1819 9.70184C12.323 9.64255 12.4671 9.59025 12.6134 9.54514L13.0641 9.43032C13.2172 9.39928 13.3731 9.3756 13.5305 9.35973C13.6906 9.34368 13.8515 9.33566 14.0124 9.33569L14.0123 9.3356Z" fill="white"/>
<path id="Vector_2" d="M21.4633 4.83154C21.4064 4.83155 21.3496 4.83443 21.293 4.84015C21.2364 4.84587 21.1802 4.85443 21.1245 4.86581C21.0687 4.87717 21.0136 4.89133 20.9593 4.90824C20.905 4.92515 20.8516 4.94479 20.7992 4.96708C20.7468 4.9894 20.6956 5.01433 20.6457 5.0418C20.5958 5.06922 20.5473 5.09912 20.5004 5.13141C20.4535 5.16374 20.4082 5.19841 20.3647 5.23529C20.3212 5.27213 20.2796 5.31114 20.24 5.35217C20.2004 5.39322 20.1629 5.43624 20.1275 5.48107C20.0922 5.5259 20.0591 5.57248 20.0284 5.62064C19.9977 5.66877 19.9694 5.7184 19.9436 5.76937C19.9178 5.82037 19.8946 5.87264 19.8739 5.92599C19.8533 5.97932 19.8354 6.03366 19.8202 6.08879C19.805 6.14393 19.7925 6.19979 19.7829 6.25618C19.7732 6.31255 19.7664 6.36937 19.7623 6.42643C19.7595 6.46685 19.7581 6.50736 19.758 6.54788C19.758 6.60513 19.7609 6.66234 19.7666 6.7193C19.7722 6.77624 19.7807 6.83285 19.792 6.88893C19.8033 6.94501 19.8174 7.00048 19.8342 7.05514C19.851 7.10982 19.8705 7.16362 19.8927 7.21634C19.9148 7.26907 19.9396 7.32065 19.9669 7.37089C19.9941 7.42112 20.0238 7.46995 20.0559 7.51719C20.088 7.5644 20.1225 7.60997 20.1591 7.65372C20.1957 7.6975 20.2345 7.73941 20.2753 7.7793C20.3161 7.81916 20.3588 7.85694 20.4034 7.8925C20.4479 7.92809 20.4942 7.96141 20.542 7.99234C20.5899 8.02327 20.6393 8.05177 20.6899 8.07773C20.7406 8.10371 20.7925 8.12712 20.8455 8.14788C20.8985 8.16861 20.9524 8.18667 21.0072 8.20197C21.062 8.21725 21.1175 8.22977 21.1735 8.23947C21.2295 8.24921 21.286 8.25612 21.3427 8.26019C21.3829 8.26306 21.4231 8.26449 21.4633 8.26449C21.5202 8.26451 21.577 8.26167 21.6336 8.25597C21.6902 8.25025 21.7464 8.24169 21.8021 8.23032C21.8579 8.21895 21.913 8.20479 21.9673 8.18789C22.0216 8.17097 22.075 8.15133 22.1274 8.12904C22.1798 8.10676 22.231 8.08185 22.2809 8.05441C22.3308 8.02697 22.3793 7.99703 22.4262 7.96471C22.4731 7.93242 22.5184 7.89778 22.5619 7.86093C22.6054 7.82405 22.647 7.78502 22.6866 7.74396C22.7262 7.70291 22.7637 7.65989 22.7991 7.61506C22.8344 7.57023 22.8675 7.52364 22.8982 7.47548C22.9289 7.42733 22.9572 7.37766 22.983 7.32667C23.0088 7.27566 23.032 7.22339 23.0527 7.17005C23.0733 7.11672 23.0912 7.06238 23.1064 7.00724C23.1216 6.95211 23.1341 6.89625 23.1437 6.83986C23.1534 6.78349 23.1602 6.72667 23.1643 6.66961C23.1671 6.62919 23.1686 6.58868 23.1686 6.54815C23.1686 6.49093 23.1657 6.43375 23.16 6.37682C23.1544 6.31989 23.1459 6.26328 23.1346 6.2072C23.1233 6.15112 23.1092 6.09565 23.0924 6.04098C23.0756 5.9863 23.0561 5.93251 23.0339 5.87979C23.0118 5.82706 22.987 5.77548 22.9597 5.72523C22.9325 5.675 22.9028 5.62617 22.8707 5.57893C22.8385 5.53169 22.8041 5.48609 22.7674 5.44232C22.7308 5.39854 22.6921 5.35662 22.6513 5.31674C22.6106 5.27688 22.5678 5.23909 22.5233 5.20353C22.4787 5.16798 22.4324 5.13469 22.3846 5.10379C22.3367 5.07286 22.2873 5.04435 22.2367 5.01839C22.186 4.99241 22.1341 4.969 22.0811 4.94824C22.0281 4.92751 21.9742 4.90946 21.9194 4.89415C21.8646 4.87884 21.8091 4.8663 21.7531 4.85657C21.6971 4.84686 21.6406 4.83997 21.5839 4.83594C21.5438 4.83307 21.5035 4.83163 21.4633 4.83163V4.83154Z" fill="white"/>
<path id="Vector_3" d="M12.6545 0.0253463C11.8757 0.0240905 11.1807 0.0273193 10.5563 0.03611L8.88253 0.0809605C8.38666 0.102489 7.94856 0.130563 7.55531 0.166892C7.35869 0.185012 7.17318 0.205284 6.99737 0.22762C6.83007 0.248707 6.66321 0.273261 6.49693 0.301266C6.33861 0.328176 6.18836 0.357238 6.0443 0.388812C5.90024 0.420387 5.76263 0.454475 5.62988 0.491073C5.50009 0.52686 5.37132 0.566225 5.24371 0.60912C5.11867 0.65128 4.99668 0.695951 4.87621 0.743672C4.63527 0.839114 4.40025 0.946215 4.15824 1.06623C3.97202 1.15863 3.79998 1.25219 3.63654 1.35122C3.4731 1.45025 3.31828 1.55484 3.16669 1.66876C3.01057 1.78665 2.86009 1.91183 2.71576 2.04389C2.56488 2.18131 2.41077 2.33246 2.25066 2.50136C2.04946 2.71243 1.87463 2.90923 1.71945 3.10236C1.64186 3.19888 1.5692 3.29432 1.50076 3.3903C1.43307 3.48489 1.36837 3.58157 1.30673 3.68021C1.24574 3.77799 1.18797 3.87756 1.13271 3.98C1.0766 4.0842 1.02356 4.19003 0.973674 4.29736C0.871594 4.51659 0.776332 4.75268 0.681249 5.01622C0.610709 5.21105 0.547545 5.40848 0.49189 5.60807C0.435109 5.81205 0.384607 6.02545 0.339577 6.25625C0.294547 6.48705 0.255258 6.73525 0.220723 7.00974C0.183508 7.31062 0.153778 7.61237 0.13156 7.91473C0.106444 8.24716 0.0856335 8.61297 0.0685903 9.02012L0.0282249 10.3739L0.00651723 12.0241L0.00023818 14.0188L0.0186269 16.9195L0.0760355 19.1171L0.120258 19.9756L0.175514 20.6869C0.193227 20.8786 0.215389 21.0699 0.241983 21.2606C0.266202 21.43 0.292215 21.5782 0.320202 21.7064C0.376989 21.9672 0.444139 22.2257 0.521491 22.4811C0.595555 22.7257 0.680254 22.9669 0.775345 23.2041C0.868814 23.4364 0.971073 23.6605 1.0823 23.8761C1.19353 24.0918 1.31373 24.299 1.4429 24.498C1.57207 24.6971 1.71021 24.888 1.85768 25.0707C2.00498 25.2534 2.16166 25.4284 2.32708 25.5949C2.49276 25.7617 2.6675 25.9205 2.85166 26.0714C3.03799 26.224 3.23168 26.3674 3.43202 26.5011C3.61797 26.6254 3.80195 26.7392 3.98727 26.8437C4.17259 26.9482 4.35953 27.043 4.55167 27.1292C4.74381 27.2154 4.94079 27.293 5.14657 27.3628C5.35234 27.4326 5.56673 27.4947 5.79331 27.5498C6.0199 27.6048 6.25976 27.6532 6.51361 27.6953C6.76747 27.7375 7.03881 27.7736 7.32873 27.8048C7.61864 27.8359 7.92793 27.8616 8.26027 27.8832C8.59261 27.9047 8.94783 27.9219 9.32951 27.9357C9.91911 27.9571 10.8116 27.9696 11.8409 27.9743L15.1728 27.9676L18.328 27.9234L19.5276 27.8896L20.3092 27.8494C20.4769 27.8358 20.6411 27.8197 20.7995 27.8007C20.9579 27.7818 21.1142 27.7602 21.2663 27.7356C21.4184 27.711 21.5672 27.6836 21.7133 27.6531C21.8577 27.623 22.0014 27.5894 22.1442 27.5524C22.2856 27.5165 22.425 27.4757 22.5629 27.4323C22.7009 27.389 22.8374 27.3422 22.9731 27.292C23.1096 27.2414 23.2449 27.1875 23.3788 27.1304C23.5136 27.073 23.6482 27.0116 23.7833 26.9465C23.9908 26.8466 24.1578 26.7633 24.3045 26.6819C24.4424 26.6062 24.5753 26.5216 24.7022 26.4286C24.8274 26.3364 24.9519 26.2314 25.0955 26.0992C25.239 25.967 25.4016 25.8077 25.603 25.6062C25.78 25.4293 25.9292 25.2756 26.0579 25.1357C26.1867 24.9959 26.2951 24.87 26.3902 24.7488C26.4808 24.6337 26.5653 24.5138 26.6432 24.3898C26.7191 24.2687 26.7891 24.1429 26.8604 24.0034C26.9677 23.7935 27.0631 23.5991 27.1486 23.4116C27.2316 23.2308 27.3075 23.0468 27.3759 22.8601C27.4434 22.6748 27.5018 22.4864 27.5509 22.2954C27.6015 22.099 27.6451 21.8916 27.6828 21.6641C27.7205 21.4366 27.7523 21.1891 27.7799 20.9126C27.8076 20.6361 27.8311 20.3306 27.8517 19.9873L27.9064 18.8349L27.9534 17.4018L27.987 15.8051L27.9999 14.1356L27.9699 10.8566L27.9298 9.38789L27.8751 8.12687L27.8069 7.14375C27.7822 6.87016 27.7555 6.6547 27.7271 6.50903C27.6957 6.34807 27.6607 6.18785 27.622 6.0285C27.5843 5.87344 27.5429 5.71932 27.4977 5.56627C27.4537 5.41716 27.4059 5.26919 27.3544 5.12252C27.3034 4.97765 27.2494 4.83583 27.1929 4.69707C27.1364 4.5583 27.0752 4.42276 27.0116 4.29009C26.9479 4.15742 26.8811 4.02799 26.8111 3.90151C26.741 3.77503 26.668 3.65169 26.5917 3.5314C26.5153 3.41111 26.4359 3.29387 26.3531 3.17977C26.2707 3.06604 26.1849 2.9549 26.0956 2.84653C26.0068 2.73876 25.9146 2.63381 25.8192 2.53186C25.7239 2.43004 25.6253 2.33126 25.5238 2.23567C25.4221 2.14005 25.3175 2.04748 25.2095 1.95795C25.1011 1.86814 24.9899 1.78171 24.8761 1.69881C24.7612 1.61506 24.6437 1.53483 24.5238 1.45823C24.4023 1.38055 24.2785 1.30648 24.1526 1.23613C24.0245 1.1646 23.8944 1.09676 23.7624 1.03269C23.5434 0.926212 23.3408 0.831759 23.1419 0.747978C22.9465 0.66483 22.7472 0.590982 22.5447 0.526685C22.3411 0.462548 22.1291 0.407562 21.8959 0.36011C21.6627 0.312658 21.4084 0.2731 21.1205 0.239462C20.8327 0.205824 20.5113 0.178645 20.1437 0.156041C19.7761 0.133436 19.3627 0.115674 18.8906 0.101322L17.2862 0.0654419L15.2556 0.0414918L12.6554 0.0255242L12.6545 0.0253463ZM14.0049 2.4923L17.7547 2.51365L19.1693 2.54092C19.5588 2.55187 19.8561 2.56469 20.0304 2.57949C20.2573 2.5986 20.4735 2.62255 20.6803 2.65125C20.8787 2.67865 21.0762 2.71273 21.2723 2.75342C21.4607 2.79289 21.6404 2.83774 21.8123 2.88833C21.9843 2.93893 22.1485 2.99562 22.3061 3.05832C22.4637 3.12102 22.6144 3.19 22.7595 3.26553C22.9033 3.34049 23.0432 3.42297 23.1784 3.51265C23.3129 3.60191 23.4426 3.69806 23.5686 3.80167C23.6945 3.90527 23.8166 4.01632 23.9358 4.13509C24.0617 4.2604 24.1777 4.38805 24.2847 4.51973C24.3913 4.65059 24.49 4.78775 24.5801 4.93047C24.6713 5.07522 24.7534 5.22545 24.8261 5.38032C24.9004 5.53819 24.9671 5.70504 25.027 5.88238C25.0869 6.05971 25.1403 6.24818 25.1876 6.44955C25.2371 6.66305 25.2786 6.87834 25.3119 7.09495C25.3478 7.32459 25.3785 7.56947 25.4045 7.83167C25.4305 8.09387 25.452 8.37346 25.4698 8.67262C25.484 8.91257 25.4963 9.22921 25.5068 9.60318L25.5331 10.8783L25.5532 14.0017L25.5303 17.1221L25.5029 18.3935L25.4651 19.3182C25.4389 19.7512 25.4113 20.1152 25.3783 20.4321C25.3617 20.5905 25.3437 20.737 25.3238 20.8746C25.3052 21.0045 25.2831 21.1339 25.2575 21.2626C25.2342 21.3801 25.2071 21.4967 25.1764 21.6124C25.1469 21.7229 25.1137 21.8323 25.0769 21.9405C25.0398 22.0492 24.9994 22.1568 24.9559 22.263C24.9098 22.3753 24.8612 22.4864 24.8101 22.5965C24.7646 22.6947 24.7168 22.7902 24.6662 22.8832C24.6162 22.9753 24.5631 23.0657 24.5069 23.1541C24.4513 23.2418 24.393 23.3269 24.332 23.4093C24.2714 23.4915 24.2077 23.5714 24.1413 23.649C24.0751 23.7263 24.0061 23.8011 23.9344 23.8733C23.8626 23.9455 23.7882 24.0152 23.711 24.0825C23.6339 24.1497 23.5539 24.2143 23.4711 24.2766C23.3883 24.3388 23.3026 24.3986 23.2141 24.4558C23.1255 24.513 23.0342 24.5679 22.9399 24.6203C22.8457 24.6727 22.7484 24.7227 22.6484 24.7704C22.5467 24.8187 22.4435 24.864 22.339 24.9062C22.231 24.9497 22.1219 24.9903 22.0116 25.0277C21.7874 25.1041 21.5508 25.1712 21.3018 25.2291C21.0423 25.289 20.7804 25.3381 20.5168 25.376C20.4154 25.3908 20.1824 25.4047 19.8488 25.4177L18.5771 25.453L14.9721 25.4998L11.1987 25.5057L9.71684 25.49L8.75461 25.46L8.04508 25.4101C7.82477 25.3915 7.6199 25.3709 7.42793 25.3475C7.23597 25.3241 7.0572 25.298 6.88901 25.2686C6.72963 25.241 6.57122 25.2081 6.41404 25.1699C6.27073 25.135 6.12889 25.0944 5.98886 25.0481C5.85386 25.0032 5.72478 24.9539 5.5992 24.8996C5.47362 24.8454 5.35162 24.7859 5.2308 24.7209C5.10997 24.656 4.9904 24.5855 4.86948 24.5086C4.77826 24.4507 4.69008 24.392 4.60522 24.3298C4.52036 24.2677 4.43838 24.2057 4.35944 24.1408C4.2805 24.0758 4.20471 24.0089 4.1316 23.94C4.05898 23.8714 3.98885 23.8003 3.92134 23.7267C3.85407 23.6533 3.78975 23.5778 3.72803 23.4996C3.66608 23.421 3.60705 23.3403 3.55105 23.2574C3.49423 23.1732 3.44047 23.0871 3.38986 22.999C3.33873 22.9102 3.29011 22.8184 3.24392 22.7237C3.19695 22.6271 3.15312 22.5291 3.11251 22.4297C3.07124 22.3285 3.03213 22.2241 2.99536 22.1163C2.9218 21.9006 2.85722 21.6709 2.80106 21.426C2.74491 21.1812 2.69701 20.921 2.65647 20.6439C2.61592 20.3667 2.58327 20.0728 2.55726 19.7605C2.53806 19.5304 2.52281 19.172 2.51115 18.7199L2.48675 17.1121L2.49572 13.0132L2.56632 9.09645L2.62014 7.71649L2.65064 7.26036C2.66122 7.13855 2.67216 7.04831 2.68338 6.99413C2.72033 6.81589 2.75756 6.65004 2.79604 6.49477C2.83199 6.34828 2.87198 6.20282 2.91597 6.05855C2.95777 5.92238 3.00182 5.79483 3.04891 5.674C3.09432 5.55695 3.14493 5.44199 3.20059 5.32946C3.25495 5.22002 3.31335 5.11525 3.37677 5.01326C3.44018 4.91127 3.50863 4.81233 3.58326 4.71393C3.65789 4.61553 3.73826 4.51838 3.82572 4.41989C3.91318 4.3214 4.00763 4.22192 4.11007 4.11939C4.22946 3.99932 4.35377 3.88426 4.48269 3.77449C4.60442 3.67093 4.73136 3.57365 4.86302 3.48305C4.99246 3.39335 5.12522 3.31352 5.26345 3.24014C5.40168 3.16677 5.54538 3.10048 5.69652 3.04083C5.84767 2.98117 6.00644 2.9278 6.17463 2.87936C6.35133 2.8298 6.52998 2.78752 6.71015 2.75262C6.8996 2.71548 7.1008 2.6831 7.31563 2.65484C7.53046 2.62659 7.75902 2.60219 8.00337 2.58102C8.1738 2.56631 8.46748 2.55321 8.85418 2.54218L10.2616 2.51437L14.0055 2.4915L14.0049 2.4923Z" fill="white"/>
</g>
</svg>
