<svg width="34" height="28" viewBox="0 0 34 28" fill="none" xmlns="http://www.w3.org/2000/svg">
<g id="Logo 1">
<path id="white background" d="M30.4637 7.03979C30.4843 7.33763 30.4843 7.63547 30.4843 7.93606C30.4843 17.0951 23.5118 27.6582 10.7622 27.6582V27.6527C6.99588 27.6582 3.30784 26.5794 0.137255 24.5453C0.684902 24.6112 1.23529 24.6441 1.78706 24.6455C4.90824 24.6482 7.9402 23.601 10.3957 21.6725C7.42961 21.6163 4.82863 19.6823 3.92 16.859C4.95902 17.0594 6.02961 17.0182 7.04941 16.7396C3.81569 16.0863 1.48922 13.2451 1.48922 9.94547C1.48922 9.91528 1.48922 9.88645 1.48922 9.85763C2.45274 10.3943 3.53157 10.6921 4.6351 10.7251C1.58941 8.68959 0.650588 4.63783 2.4898 1.46998C6.00902 5.80038 11.2014 8.43293 16.7753 8.71155C16.2167 6.3041 16.9798 3.78136 18.7806 2.089C21.5724 -0.535311 25.9631 -0.400801 28.5874 2.38959C30.1398 2.08351 31.6276 1.5139 32.9892 0.706846C32.4718 2.31136 31.3888 3.6743 29.9422 4.54038C31.3161 4.37842 32.6584 4.01057 33.9225 3.4492C32.992 4.84371 31.8198 6.05841 30.4637 7.03979Z" fill="white"/>
</g>
</svg>
